<svg xmlns="http://www.w3.org/2000/svg" viewBox="0 0 60.5 60.5"><defs><style>.cls-1,.cls-3{fill:none;stroke:#358dcc;stroke-miterlimit:10;stroke-width:0.5px;}.cls-2{fill:#358dcc;}.cls-3{opacity:0.2;}</style></defs><path class="cls-1" d="M34.64,48.59l.89-.15a18.65,18.65,0,0,0,6-2.33,17.54,17.54,0,0,0,6.07-6.39,18.5,18.5,0,0,0,2.41-9.43,19.28,19.28,0,0,0-2.24-9.5,17.12,17.12,0,0,0-6.14-6.42,18.51,18.51,0,0,0-5.62-2.19,35.71,35.71,0,0,0-7.95-.77H14.44v23l8-15.92h7.36C40,19,42.11,28.06,42.39,30.52c1.23,10.63-4.59,16-21.46,18-3.76.44-6.49.6-6.49.6H27.73A42.27,42.27,0,0,0,34.64,48.59Z"/><path class="cls-1" d="M25.51,46.13c1.2-.35,2.5-.65,3.73-1.11,4.86-1.83,7.69-5,8.44-9.63a10.74,10.74,0,0,0-.92-6.71C35.44,26,33,24.43,30,23.52a20.12,20.12,0,0,0-4.61-.75l-.32,0V19.94c4.73,0,8.85,1.34,11.84,4.62,3.94,4.34,4.5,9.21,1.91,14.19S31.37,45.73,25.51,46.13Z"/><path class="cls-1" d="M25,28.13V25.45c4.65,0,8.93,3.07,9.56,7.27.67,4.48-3.23,9.13-8.06,9.49l.32-.13C30,41,32.48,38,32.56,35c.07-2.74-1.69-5.05-4.75-6.14-.77-.27-1.59-.43-2.39-.64Z"/><circle class="cls-2" cx="32.76" cy="37.31" r="1.91"/><circle class="cls-2" cx="30.52" cy="22.36" r="2.62"/><circle class="cls-2" cx="38.57" cy="29.56" r="2.28"/><circle class="cls-3" cx="30.25" cy="30.25" r="30"/></svg>