<svg xmlns="http://www.w3.org/2000/svg" xmlns:xlink="http://www.w3.org/1999/xlink" viewBox="0 0 69.05 69.05"><defs><style>.a{fill:url(#a);}.b,.e{opacity:0.5;}.c{fill:url(#b);}.d,.e,.f{fill:none;stroke-miterlimit:10;isolation:isolate;}.d{stroke-width:0.75px;opacity:0.8;stroke:url(#c);}.e{stroke-width:0.5px;stroke:url(#d);}.f{stroke-width:0.25px;opacity:0.3;stroke:url(#e);}</style><linearGradient id="a" x1="21.87" y1="973.84" x2="38.27" y2="954.01" gradientTransform="translate(0 -924)" gradientUnits="userSpaceOnUse"><stop offset="0" stop-color="#4777ff"/><stop offset="1" stop-color="#00dacd"/></linearGradient><linearGradient id="b" x1="28.13" y1="979.03" x2="44.54" y2="959.19" xlink:href="#a"/><linearGradient id="c" x1="18.28" y1="978.15" x2="50.81" y2="938.85" xlink:href="#a"/><linearGradient id="d" x1="15.88" y1="981.06" x2="53.17" y2="935.99" xlink:href="#a"/><linearGradient id="e" x1="12.51" y1="985.13" x2="56.54" y2="931.92" xlink:href="#a"/></defs><title>139</title><path class="a" d="M34.53,14.53a20,20,0,1,0,20,20A20,20,0,0,0,34.53,14.53Zm8.2,32.8H25.83v-7.5c0-1.8,1.3-3,2.7-4.2,0,0,2.9-2.5,4.7-4.11a.8.8,0,0,1,1.1.11c.3.4,1.09,1.5,1.09,1.5l2.8-8-7.9,1.29s.7.9,1.2,1.5c.31.3,0,.8-.2,1l-4.5,3.91a.85.85,0,0,1-1.3-.7V21.52a1.61,1.61,0,0,1,1.5-1.6c3.5,0,4.11-.1,7.5,0a9,9,0,0,1,7.3,14.3,10.61,10.61,0,0,1-3.5,3h0l5.6,7.41A1.6,1.6,0,0,1,42.73,47.33Z"/><g class="b"><path class="c" d="M38.63,37.23c-.7.6-12.9,10-12.9,10h16.9a1.87,1.87,0,0,0,1.6-2.7Z"/></g><circle class="d" cx="34.53" cy="34.53" r="25.1"/><circle class="e" cx="34.53" cy="34.53" r="29"/><circle class="f" cx="34.53" cy="34.53" r="34.4"/></svg>
