<svg xmlns="http://www.w3.org/2000/svg" viewBox="0 0 49.81 72.58"><defs><style>.cls-1,.cls-2{fill:#296dfb}.cls-1{opacity:0.5;isolation:isolate}</style></defs><path class="cls-1" d="M38.18,51.78l18,23.7c1.56,1.91.16,7.1-4.2,7.1L7.07,82.43l2.27-4.34,25-26.77a2.48,2.48,0,0,1,3.52,0A2.4,2.4,0,0,1,38.18,51.78Z" transform="translate(-7 -10)"/><g id="mJxsJZ"><path class="cls-2" d="M7.14,62.7c0-4.85,3.54-8,7.25-11.23,0,0,7.72-6.65,12.57-11,.55-.45,2.15-.78,2.87.21l3,4.1,7.5-21.16-20.9,3.53s1.91,2.38,3.18,4.12a2.18,2.18,0,0,1-.45,2.66C18.12,37.44,10.4,44.3,10.4,44.3a2.13,2.13,0,0,1-3-.6,2.11,2.11,0,0,1-.36-1.29C7,32.83,7.09,23.85,7,14.27a4.24,4.24,0,0,1,4.12-4.18c9.19,0,10.82-.18,20.05,0A24.17,24.17,0,0,1,53.82,25.92,24.61,24.61,0,0,1,50.7,48.07c-3,4.29-6,5.92-9.35,7.88-.83.86-34.26,26.61-34.26,26.61Z" transform="translate(-7 -10)"/></g></svg>
