<svg xmlns="http://www.w3.org/2000/svg" xmlns:xlink="http://www.w3.org/1999/xlink" viewBox="0 0 112.7 164.49"><defs><style>.cls-1{fill:#08c5fb;opacity:0.5;}.cls-2{fill:url(#linear-gradient);}</style><linearGradient id="linear-gradient" x1="358.36" y1="209.64" x2="13.36" y2="74.64" gradientUnits="userSpaceOnUse"><stop offset="0" stop-color="#4777ff"/><stop offset="1" stop-color="#00dacd"/></linearGradient></defs><path class="cls-1" d="M70.57,94.82l40.76,53.62c3.49,4.31.34,16.05-9.53,16.05L.16,164.2l5.13-9.84L61.68,93.73A5.64,5.64,0,0,1,70.57,94.82Z"/><g id="mJxsJZ"><path class="cls-2" d="M.32,119.26c0-11,8-18.13,16.41-25.43,0,0,17.46-15,28.45-24.88,1.23-1,4.85-1.71,6.49.49,1.88,2.52,6.86,9.25,6.86,9.25l17-47.87-47.23,8s4.3,5.38,7.17,9.33c1.5,2,.24,4.93-1,6-9.29,8-26.78,23.49-26.78,23.49C5.44,79.53.14,78.2.16,73.33.05,51.65.19,31.35,0,9.68,0,5.92,3.08.2,9.33.2,30.11.2,33.82-.2,54.61.13A54.64,54.64,0,0,1,106,36a55.76,55.76,0,0,1-7,50.11C92.19,95.86,85.33,99.55,77.87,104,75.78,105.93.19,164.2.19,164.2Z"/></g></svg>
