<svg xmlns="http://www.w3.org/2000/svg" xmlns:xlink="http://www.w3.org/1999/xlink" viewBox="0 0 392.6 164.49"><defs><style>.cls-1{fill:#08c5fb;}.cls-1,.cls-7{opacity:0.5;}.cls-2{fill:url(#linear-gradient);}.cls-3{fill:url(#linear-gradient-2);}.cls-4{fill:url(#linear-gradient-3);}.cls-5{fill:url(#linear-gradient-4);}.cls-6{fill:url(#linear-gradient-5);}.cls-8{fill:#fff;}</style><linearGradient id="linear-gradient" x1="370.92" y1="177.55" x2="25.92" y2="42.55" gradientUnits="userSpaceOnUse"><stop offset="0" stop-color="#4777ff"/><stop offset="1" stop-color="#00dacd"/></linearGradient><linearGradient id="linear-gradient-2" x1="379" y1="156.89" x2="34" y2="21.89" xlink:href="#linear-gradient"/><linearGradient id="linear-gradient-3" x1="395.31" y1="115.21" x2="50.31" y2="-19.79" xlink:href="#linear-gradient"/><linearGradient id="linear-gradient-4" x1="399.16" y1="105.38" x2="54.16" y2="-29.62" xlink:href="#linear-gradient"/><linearGradient id="linear-gradient-5" x1="358.36" y1="209.64" x2="13.36" y2="74.64" xlink:href="#linear-gradient"/></defs><path class="cls-1" d="M70.57,94.82l40.76,53.62c3.49,4.31.34,16.05-9.53,16.05L.16,164.2l5.13-9.84L61.68,93.73A5.64,5.64,0,0,1,70.57,94.82Z"/><path class="cls-2" d="M150.43,129.76H136.6a2.46,2.46,0,0,1-2.45-2.46V59.7a2.46,2.46,0,0,1,2.46-2.46H149.1a2.46,2.46,0,0,1,2.46,2.46h0a2.45,2.45,0,0,0,4.3,1.62,18,18,0,0,1,3.73-3.42,14.8,14.8,0,0,1,8.11-2.26,23.21,23.21,0,0,1,10.4,2.48,2.47,2.47,0,0,1,1.23,3l-4.11,11.59a2.46,2.46,0,0,1-3.4,1.38,14.27,14.27,0,0,0-6.39-1.69,10.44,10.44,0,0,0-6.67,2.17q-2.73,2.17-4.3,7.84t-1.57,23.74V127.3A2.46,2.46,0,0,1,150.43,129.76Z"/><path class="cls-3" d="M201.92,78.63l-14.23-2.57a1.43,1.43,0,0,1-1.1-1.87q2.94-9.07,9.39-13.62,7-4.93,20.81-4.93,12.54,0,18.67,3t8.64,7.54q2.51,4.58,2.5,16.77l-.2,21.88a76.06,76.06,0,0,0,.9,13.78,60.83,60.83,0,0,0,3.41,9.31,1.43,1.43,0,0,1-1.31,2H234.07a1.41,1.41,0,0,1-1.33-.93c-.41-1.18-1.86-4.52-2.41-6.42h0a1.43,1.43,0,0,0-2.31-.69,33,33,0,0,1-8.63,5.5,29.55,29.55,0,0,1-11.67,2.33q-11,0-17.25-5.94a19.72,19.72,0,0,1-6.3-15A20.2,20.2,0,0,1,187,98a18.75,18.75,0,0,1,8-7.2q5.16-2.5,14.9-4.37,12-2.25,17.28-4.23a1.44,1.44,0,0,0,.93-1.35V80q0-5.4-2.67-7.7T215.45,70q-5,0-7.8,2a12.71,12.71,0,0,0-4.13,5.83A1.45,1.45,0,0,1,201.92,78.63ZM228.19,96a1.43,1.43,0,0,0-1.82-1.38q-3.52,1-9.58,2.31-7.81,1.67-10.21,3.27a7.82,7.82,0,0,0-3.67,6.6,9.2,9.2,0,0,0,2.94,6.81,10.23,10.23,0,0,0,7.47,2.86,16.25,16.25,0,0,0,9.67-3.33,11.74,11.74,0,0,0,4.47-6.2c.49-1.61.73-4.65.73-9.14Z"/><path class="cls-4" d="M325.64,129.67H315a3.4,3.4,0,0,1-3.4-3.4h0a3.38,3.38,0,0,0-5.49-2.66,25.43,25.43,0,0,1-4.75,3.09,26.22,26.22,0,0,1-11.9,3q-12.21,0-20.91-9.84t-8.71-27.44q0-18,8.48-27.38a27.59,27.59,0,0,1,21.41-9.37,25.2,25.2,0,0,1,15.12,4.89,3.4,3.4,0,0,0,5.42-2.72V33.69a3.4,3.4,0,0,1,3.39-3.4h11.95a3.4,3.4,0,0,1,3.4,3.4v92.58A3.4,3.4,0,0,1,325.64,129.67ZM279,91.12q0,11.34,3.13,16.41,4.53,7.34,12.67,7.33a13.79,13.79,0,0,0,11-5.5q4.53-5.51,4.53-16.44,0-12.21-4.4-17.58a14.47,14.47,0,0,0-22.44-.06Q279,80.58,279,91.12Z"/><path class="cls-5" d="M363,129.67H349.17a2.46,2.46,0,0,1-2.46-2.46V59.7a2.46,2.46,0,0,1,2.46-2.46h12.49a2.46,2.46,0,0,1,2.46,2.46h0a2.45,2.45,0,0,0,4.3,1.62,18,18,0,0,1,3.74-3.42,14.79,14.79,0,0,1,8.1-2.26,23.45,23.45,0,0,1,11.08,2.82,2.42,2.42,0,0,1,1.26,2.15V71.84a2.47,2.47,0,0,1-3.19,2.34A50.7,50.7,0,0,0,378,72.44a10.42,10.42,0,0,0-6.67,2.17q-2.74,2.17-4.31,7.84t-1.56,23.74v21A2.46,2.46,0,0,1,363,129.67Z"/><g id="mJxsJZ"><path class="cls-6" d="M.32,119.26c0-11,8-18.13,16.41-25.43,0,0,17.46-15,28.45-24.88,1.23-1,4.85-1.71,6.49.49,1.88,2.52,6.86,9.25,6.86,9.25l17-47.87-47.23,8s4.3,5.38,7.17,9.33c1.5,2,.24,4.93-1,6-9.29,8-26.78,23.49-26.78,23.49C5.44,79.53.14,78.2.16,73.33.05,51.65.19,31.35,0,9.68,0,5.92,3.08.2,9.33.2,30.11.2,33.82-.2,54.61.13A54.64,54.64,0,0,1,106,36a55.76,55.76,0,0,1-7,50.11C92.19,95.86,85.33,99.55,77.87,104,75.78,105.93.19,164.2.19,164.2Z"/></g><g class="cls-7"><path class="cls-8" d="M137,142.14l2,7.71c.44,1.69.85,3.26,1.13,4.83h.1c.34-1.54.84-3.17,1.34-4.8l2.48-7.74h2.32l2.35,7.59c.57,1.81,1,3.41,1.35,5h.09a45.2,45.2,0,0,1,1.16-4.92l2.17-7.62h2.72l-4.89,15.17h-2.5l-2.32-7.24a47.33,47.33,0,0,1-1.35-5h-.07a44.58,44.58,0,0,1-1.37,5l-2.45,7.21h-2.51l-4.57-15.17Z"/><path class="cls-8" d="M160.41,142.14l2,7.71c.44,1.69.85,3.26,1.13,4.83h.09c.35-1.54.85-3.17,1.35-4.8l2.48-7.74h2.32l2.35,7.59c.56,1.81,1,3.41,1.35,5h.09a45.2,45.2,0,0,1,1.16-4.92l2.16-7.62h2.73l-4.89,15.17h-2.51l-2.32-7.24c-.53-1.69-1-3.2-1.35-5h-.06a44.57,44.57,0,0,1-1.38,5l-2.44,7.21h-2.51l-4.58-15.17Z"/><path class="cls-8" d="M183.86,142.14l2,7.71c.43,1.69.84,3.26,1.12,4.83h.1c.34-1.54.84-3.17,1.35-4.8l2.47-7.74h2.32l2.35,7.59c.57,1.81,1,3.41,1.35,5h.1a43,43,0,0,1,1.16-4.92l2.16-7.62h2.73l-4.89,15.17h-2.51l-2.32-7.24c-.53-1.69-1-3.2-1.35-5H192a46.8,46.8,0,0,1-1.38,5l-2.45,7.21h-2.5L181,142.14Z"/><path class="cls-8" d="M204,155.68a1.85,1.85,0,0,1,1.88-2,2,2,0,0,1,0,3.95A1.85,1.85,0,0,1,204,155.68Z"/><path class="cls-8" d="M211.1,146.87c0-1.78,0-3.32-.13-4.73h2.42l.09,3h.13a4.56,4.56,0,0,1,4.2-3.33,3.08,3.08,0,0,1,.78.1v2.6a4.28,4.28,0,0,0-.94-.09c-1.94,0-3.32,1.47-3.7,3.54a8,8,0,0,0-.12,1.28v8.09H211.1Z"/><path class="cls-8" d="M229.59,157.31l-.22-1.91h-.09a5.67,5.67,0,0,1-4.64,2.26A4.33,4.33,0,0,1,220,153.3c0-3.67,3.26-5.67,9.12-5.64v-.32c0-1.25-.34-3.51-3.44-3.51a7.54,7.54,0,0,0-4,1.13l-.63-1.82a9.44,9.44,0,0,1,5-1.35c4.64,0,5.77,3.17,5.77,6.21v5.68a21.11,21.11,0,0,0,.25,3.63Zm-.4-7.74c-3-.06-6.43.47-6.43,3.42a2.44,2.44,0,0,0,2.6,2.63,3.78,3.78,0,0,0,3.67-2.54,3,3,0,0,0,.16-.88Z"/><path class="cls-8" d="M249.41,135.05v18.34c0,1.35,0,2.89.12,3.92h-2.48l-.12-2.63h-.06a5.63,5.63,0,0,1-5.18,3c-3.66,0-6.49-3.11-6.49-7.72,0-5,3.11-8.15,6.81-8.15a5.07,5.07,0,0,1,4.57,2.32h.07v-9.06Zm-2.76,13.26a4.64,4.64,0,0,0-.13-1.16,4.06,4.06,0,0,0-4-3.19c-2.85,0-4.55,2.51-4.55,5.86,0,3.07,1.51,5.61,4.49,5.61a4.14,4.14,0,0,0,4-3.29,4.53,4.53,0,0,0,.13-1.19Z"/><path class="cls-8" d="M262.38,157.31l-.22-1.91h-.09a5.67,5.67,0,0,1-4.64,2.26,4.33,4.33,0,0,1-4.64-4.36c0-3.67,3.26-5.67,9.12-5.64v-.32c0-1.25-.34-3.51-3.45-3.51a7.57,7.57,0,0,0-3.95,1.13l-.62-1.82a9.44,9.44,0,0,1,5-1.35c4.64,0,5.77,3.17,5.77,6.21v5.68a21.11,21.11,0,0,0,.25,3.63Zm-.41-7.74c-3-.06-6.42.47-6.42,3.42a2.44,2.44,0,0,0,2.6,2.63,3.79,3.79,0,0,0,3.67-2.54,3,3,0,0,0,.15-.88Z"/><path class="cls-8" d="M269.09,146.87c0-1.78,0-3.32-.13-4.73h2.42l.09,3h.13a4.56,4.56,0,0,1,4.2-3.33,3.08,3.08,0,0,1,.78.1v2.6a4.28,4.28,0,0,0-.94-.09c-1.94,0-3.32,1.47-3.7,3.54a8,8,0,0,0-.12,1.28v8.09h-2.73Z"/><path class="cls-8" d="M279.46,135.05h2.76v22.26h-2.76Z"/><path class="cls-8" d="M295.26,157.31,295,155.4H295a5.67,5.67,0,0,1-4.64,2.26,4.33,4.33,0,0,1-4.64-4.36c0-3.67,3.26-5.67,9.12-5.64v-.32c0-1.25-.34-3.51-3.45-3.51a7.57,7.57,0,0,0-3.95,1.13l-.62-1.82a9.44,9.44,0,0,1,5-1.35c4.64,0,5.77,3.17,5.77,6.21v5.68a21.11,21.11,0,0,0,.25,3.63Zm-.41-7.74c-3-.06-6.42.47-6.42,3.42a2.44,2.44,0,0,0,2.6,2.63,3.78,3.78,0,0,0,3.67-2.54,3,3,0,0,0,.15-.88Z"/><path class="cls-8" d="M301.85,157.31c.06-1,.12-2.57.12-3.92V135.05h2.73v9.53h.06a5.66,5.66,0,0,1,5.17-2.79c3.76,0,6.43,3.14,6.4,7.75,0,5.42-3.42,8.12-6.81,8.12a5.39,5.39,0,0,1-5.07-2.86h-.1l-.12,2.51Zm2.85-6.08a5.37,5.37,0,0,0,.12,1,4.25,4.25,0,0,0,4.14,3.23c2.89,0,4.61-2.35,4.61-5.83,0-3-1.57-5.64-4.51-5.64a4.4,4.4,0,0,0-4.21,3.38,5.74,5.74,0,0,0-.15,1.13Z"/><path class="cls-8" d="M318.4,155.68a1.87,1.87,0,1,1,1.84,2A1.85,1.85,0,0,1,318.4,155.68Z"/><path class="cls-8" d="M339.27,149.6c0,5.61-3.88,8.06-7.55,8.06-4.11,0-7.28-3-7.28-7.81,0-5.08,3.33-8.06,7.53-8.06C336.33,141.79,339.27,145,339.27,149.6Zm-12,.16c0,3.32,1.92,5.83,4.61,5.83s4.61-2.48,4.61-5.9c0-2.57-1.28-5.83-4.54-5.83S327.23,146.87,327.23,149.76Z"/><path class="cls-8" d="M342.75,146.87c0-1.78,0-3.32-.12-4.73H345l.09,3h.13a4.56,4.56,0,0,1,4.2-3.33,3.08,3.08,0,0,1,.78.1v2.6a4.28,4.28,0,0,0-.94-.09c-1.94,0-3.32,1.47-3.7,3.54a8,8,0,0,0-.12,1.28v8.09h-2.73Z"/><path class="cls-8" d="M365.82,142.14c-.06,1.1-.12,2.32-.12,4.17v8.81c0,3.48-.69,5.61-2.17,6.93a8,8,0,0,1-5.51,1.81,9.74,9.74,0,0,1-5-1.25l.69-2.1a8.52,8.52,0,0,0,4.45,1.19c2.82,0,4.89-1.47,4.89-5.3v-1.69h-.06a5.43,5.43,0,0,1-4.83,2.54c-3.76,0-6.46-3.2-6.46-7.4,0-5.14,3.36-8.06,6.84-8.06a5,5,0,0,1,4.73,2.64h.06l.13-2.29Zm-2.85,6a3.85,3.85,0,0,0-.16-1.26A4,4,0,0,0,359,144c-2.64,0-4.52,2.22-4.52,5.73,0,3,1.51,5.46,4.49,5.46a4,4,0,0,0,3.82-2.82,4.74,4.74,0,0,0,.22-1.48Z"/></g></svg>
